<svg width="300" height="300" viewBox="0 0 300 300" fill="none" xmlns="http://www.w3.org/2000/svg">
<rect width="275" height="275" fill="#D9D9D9"/>
<path d="M275 0L300 25V300H275V0Z" fill="#7B7B7B"/>
<path d="M0 275H275L300 300H25L0 275Z" fill="#4D4D4D"/>
<rect x="275" y="25" width="25" height="25" fill="#7B7B7B"/>
<rect x="12" y="11" width="50" height="50" fill="black"/>
<rect x="63" y="61" width="50" height="51" fill="black"/>
<rect x="113" y="11" width="50" height="50" fill="black"/>
<rect x="214" y="11" width="50" height="50" fill="black"/>
<rect x="214" y="112" width="50" height="50" fill="black"/>
<rect x="113" y="112" width="50" height="50" fill="black"/>
<rect x="163" y="162" width="50" height="50" fill="black"/>
<rect x="214" y="212" width="50" height="51" fill="black"/>
<rect x="113" y="212" width="50" height="51" fill="black"/>
<rect x="12" y="112" width="50" height="50" fill="black"/>
<rect x="63" y="162" width="50" height="50" fill="black"/>
<rect x="12" y="212" width="50" height="51" fill="black"/>
<rect x="163" y="61" width="50" height="51" fill="black"/>
<rect x="63" y="11" width="50" height="50" fill="white"/>
<rect x="163" y="11" width="50" height="50" fill="white"/>
<rect x="113" y="61" width="50" height="51" fill="white"/>
<rect x="12" y="61" width="50" height="51" fill="white"/>
<rect x="214" y="61" width="50" height="51" fill="white"/>
<rect x="163" y="112" width="50" height="50" fill="white"/>
<rect x="63" y="112" width="50" height="50" fill="white"/>
<rect x="113" y="162" width="50" height="50" fill="white"/>
<rect x="214" y="162" width="50" height="50" fill="white"/>
<rect x="163" y="212" width="50" height="51" fill="white"/>
<rect x="63" y="212" width="50" height="51" fill="white"/>
<rect x="12" y="162" width="50" height="50" fill="white"/>
</svg>
