<svg width="65" height="22" viewBox="0 0 65 22" fill="none" xmlns="http://www.w3.org/2000/svg">
<path d="M0 22V2H10.6162L14.1737 12.169C14.5098 13.1268 14.8179 13.9155 14.902 14.6761H14.958C15.042 13.9155 15.3501 13.0986 15.6863 12.1127L19.1036 2H30V22H23.4454V11.0141C23.4454 9.74648 23.5854 8.25352 23.8375 6.78873H23.6975C23.5294 7.49296 22.8852 9.40845 22.3529 10.7606L18.0392 22H11.3725L7.31092 10.8169C6.7507 9.26761 6.30252 7.74648 6.05042 6.78873H5.93837C6.19048 8.11268 6.21849 9.66197 6.21849 11.0141V22H0Z" fill="black"/>
<path d="M42.3333 17.1111H59.3333V19.5555H53.6667V22H42.3333V19.5555H36.6667V22H31V14.6667H36.6667V12.2222H42.3333V9.77777H48V2.44443H42.3333V0H53.6667V2.44443H59.3333V9.77777H53.6667V12.2222H48V14.6667H42.3333V17.1111ZM31 7.33333V4.88888H36.6667V7.33333H31ZM36.6667 4.88888V2.44443H42.3333V4.88888H36.6667ZM59.3333 17.1111V14.6667H65V17.1111H59.3333Z" fill="black"/>
</svg>
