<svg width="135" height="23" viewBox="0 0 135 23" fill="none" xmlns="http://www.w3.org/2000/svg">
<path d="M56 22V2H63.0724V16.4789H75.4492V22H56Z" fill="black"/>
<path d="M92.0025 2V7.49296H84.4328V22H77.388V7.49296H69.8459V2H92.0025Z" fill="black"/>
<path d="M99 22H91.9276V2H99V22Z" fill="black"/>
<path d="M0 22.2857V2H10.6159L14.1732 12.3143C14.5093 13.2857 14.8175 14.0857 14.9015 14.8571H14.9575C15.0415 14.0857 15.3497 13.2571 15.6858 12.2571L19.103 2H29.999V22.2857H23.4446V11.1429C23.4446 9.85714 23.5847 8.34286 23.8368 6.85714H23.6967C23.5287 7.57143 22.8844 9.51429 22.3522 10.8857L18.0386 22.2857H11.3722L7.31069 10.9429C6.75049 9.37143 6.30232 7.82857 6.05023 6.85714H5.93819C6.19028 8.2 6.21829 9.77143 6.21829 11.1429V22.2857H0Z" fill="black"/>
<path d="M31.0512 2H38.2218V12.4571C38.2218 15.4857 39.8184 17.3714 43.0396 17.3714C46.0647 17.3714 47.8294 15.4571 47.8294 12.4571V2H55V13.3429C55 19.2286 50.7704 23 43.0396 23C35.3087 23 31.0512 19.1714 31.0512 13.2571V2Z" fill="black"/>
<path d="M112.333 17.1111H129.333V19.5555H123.667V22H112.333V19.5555H106.667V22H101V14.6667H106.667V12.2222H112.333V9.77777H118V2.44443H112.333V0H123.667V2.44443H129.333V9.77777H123.667V12.2222H118V14.6667H112.333V17.1111ZM101 7.33333V4.88888H106.667V7.33333H101ZM106.667 4.88888V2.44443H112.333V4.88888H106.667ZM129.333 17.1111V14.6667H135V17.1111H129.333Z" fill="black"/>
</svg>
